# xmcd CD database file
#
# Track frame offsets:
#	150
#	12667
#	24336
#	37644
#	48629
#	68148
#	79531
#	91119
#	99961
#	112970
#	130877
#	148841
#	171081
#	187279
#	199261
#	209770
#	229499
#	248321
#	267468
#	279617
#	290239
#	306964
#	319081
#	344907
#
# Disc length: 4760 seconds
#
# Revision: 0
# Processed by: cddbd v1.5PL3 Copyright (c) Steve Scherf et al.
# Submitted via: CDex 1.51
#
DISCID=6f129618
DTITLE=Nina Simone - Sings the blues
DYEAR=1900
DGENRE=Blues
TTITLE0=Do I move you
TTITLE1=Day and night
TTITLE2=In the dark
TTITLE3=Real real
TTITLE4=My man's gone now
TTITLE5=Backlash blues
TTITLE6=I want a little sugar in my bowl
TTITLE7=Buck
TTITLE8=Since I fell for you
TTITLE9=The house of the rising sun
TTITLE10=Blues for mama
TTITLE11=Mississippi goddamn
TTITLE12=Strange fruit
TTITLE13=Old Jim Crowe
TTITLE14=Ai'nt got no, I got life
TTITLE15=Don't explain
TTITLE16=I got bad and that ain't good
TTITLE17=I loves you Porgy
TTITLE18=I put a spell on you
TTITLE19=I'm gonna leave you
TTITLE20=My baby cares for me
TTITLE21=Nobody knows you when you're down and out
TTITLE22=Summertime
TTITLE23=To love somebody
EXTD=
EXTT0=
EXTT1=
EXTT2=
EXTT3=
EXTT4=
EXTT5=
EXTT6=
EXTT7=
EXTT8=
EXTT9=
EXTT10=
EXTT11=
EXTT12=
EXTT13=
EXTT14=
EXTT15=
EXTT16=
EXTT17=
EXTT18=
EXTT19=
EXTT20=
EXTT21=
EXTT22=
EXTT23=
PLAYORDER=
